<svg width="90" xmlns="http://www.w3.org/2000/svg" viewBox="0 0 600 500" style="height:auto!important;enable-background:new 0 0 600 500"><style>.stT4_0030{fill:#494949!important}.stT4_0031{fill:#fff!important}</style><path class="stT4_0030" d="M547 250c0 14.2-13.1 27.1-15.5 40.7-2.4 13.9 5.5 30.5.7 43.5-4.8 13.2-21.6 20.8-28.5 32.9-7 12.1-5.3 30.5-14.2 41.1-9 10.7-27.3 12.1-38 21.1-10.7 9-15.3 26.8-27.4 33.8-12 7-29.7 2.1-43 6.9-13 4.7-23.4 19.9-37.3 22.4-13.5 2.4-28.5-8.3-42.7-8.3-14.2 0-29.2 10.7-42.7 8.3-13.9-2.4-24.3-17.6-37.3-22.4-13.2-4.8-31 .1-43-6.9-12.1-7-16.7-24.9-27.4-33.8-10.7-9-29.1-10.4-38-21.1-9-10.7-7.2-29-14.2-41.1-7-12-23.7-19.6-28.5-32.9-4.7-13 3.2-29.6.7-43.5C68.1 277.1 55 264.2 55 250c0-14.2 13.1-27.1 15.5-40.7 2.4-13.9-5.5-30.5-.7-43.5 4.8-13.2 21.6-20.8 28.5-32.9 7-12.1 5.3-30.5 14.2-41.1 9-10.7 27.3-12.1 38-21.1 10.7-9 15.3-26.8 27.4-33.8 12-7 29.7-2.1 43-6.9 13-4.7 23.4-19.9 37.3-22.4C271.8 5.3 286.8 16 301 16c14.2 0 29.2-10.7 42.7-8.3 13.9 2.4 24.3 17.6 37.3 22.4 13.2 4.8 31-.1 43 6.9 12.1 7 16.7 24.9 27.4 33.8 10.7 9 29.1 10.4 38 21.1 9 10.7 7.2 29 14.2 41.1 7 12 23.7 19.6 28.5 32.9 4.7 13-3.2 29.6-.7 43.5 2.5 13.5 15.6 26.4 15.6 40.6z"/><circle class="stT4_0031" cx="301" cy="250" r="212.8"/><path class="stT4_0030" d="m176.4 216.7-3.9 8.3-60.7-28.3 5.5-11.8 47.1 12.6-40.1-27.7 5.3-11.4 60.7 28.3-3.9 8.3-38.1-17.8 34.8 24.9-3.1 6.6-41.8-9.7 38.2 17.7zm-21.8-92.1c2.7-3 6.1-4.5 10.3-4.6 4.2 0 8 1.4 11.3 4.4l27.3 24.3c3.3 3 5.2 6.5 5.7 10.7.4 4.2-.7 7.8-3.3 10.8-2.7 3-6.1 4.5-10.3 4.5-4.2 0-8-1.5-11.3-4.4L157 146c-3.3-3-5.2-6.5-5.7-10.7-.4-4.2.7-7.8 3.3-10.7zm15.1 6.8c-1.2-1.1-2.6-1.6-4.1-1.6-1.5 0-2.7.6-3.7 1.7s-1.4 2.4-1.2 3.9c.1 1.5.8 2.8 2 3.9l27.4 24.4c1.2 1.1 2.5 1.6 4.1 1.6 1.5 0 2.8-.6 3.7-1.6 1-1.1 1.4-2.4 1.2-3.9-.2-1.5-.9-2.8-2-3.8l-27.4-24.6zm23.7-40 34.4 31.4-24.3-37.9 7.7-4.9 36.1 56.4-8.2 5.3-33.7-29.3 23.1 36.1-7.7 4.9L184.7 97l8.7-5.6zm61.6 41.9L236.2 69l24.9-7.3 2.8 9.7-16.2 4.7 5.2 17.6 11.8-3.5 2.8 9.7-11.8 3.5 5.1 17.6 16.2-4.7 2.8 9.7-24.8 7.3zm43.5-36.8-11.9-39 10 .1 6.6 24.1 6.9-24 10.1.1-12.6 38.8-.2 28-9.1-.1.2-28zm34.6 30.9L357 64.8l12.7 4.9c3.4 1.3 6 3.4 8 6.4 1.7 2.6 2.3 5.8 2 9.6-.2 2.1-.8 4.4-1.7 7-1.6 4.2-3.9 7.2-6.9 8.9-1.3.7-2.6 1.2-3.9 1.3 1.6 1.5 2.6 3.7 3 6.6.3 1.9.1 4.2-.4 6.9-.3 1.4-.7 2.9-1.4 4.5-1.5 4-3.5 7.1-5.9 9.3-1.9 1.7-4 2.9-6.4 3.5-2.7.6-5.2.5-7.3-.3l-15.7-6zm12.7-5.8 3.6 1.4c2.9 1.1 5.5.2 7.9-2.6.8-1 1.5-2.2 2.1-3.6 1.3-3.5 1.7-6.3 1.1-8.3-.5-1.9-1.8-3.2-3.9-4l-3.6-1.4-7.2 18.5zm10.6-27.7 3.6 1.4c2.6 1 5 .3 7-2.2.7-.9 1.4-2.2 2-3.8 1-2.6 1.2-4.8.6-6.6-.6-1.6-1.7-2.8-3.4-3.4l-3.6-1.4-6.2 16zm29.6 42.4-11.1 10.9-7.5-5.8 48.9-46.9 10 7.7-32.7 59.3-7.6-5.8 7.6-13.5-7.6-5.9zm25.8-25.8-18.7 18.9 5.4 4.1 13.3-23zm-5.8 67.8c-2.5-3.2-3.3-6.9-2.5-11 .8-4.1 2.9-7.5 6.4-10.2l29.1-22.3c3.5-2.7 7.4-3.9 11.6-3.5 4.2.3 7.5 2.1 9.9 5.3 2.5 3.2 3.3 6.9 2.5 11-.8 4.1-2.9 7.5-6.4 10.2l-6.1 4.7-5.8-7.5 6.2-4.8c1.3-1 2.1-2.2 2.3-3.7.3-1.5 0-2.8-.9-4-.9-1.1-2.1-1.8-3.6-1.9s-2.9.3-4.2 1.3l-29.2 22.4c-1.3 1-2.1 2.2-2.3 3.7-.3 1.5 0 2.8.9 4 .9 1.2 2.1 1.8 3.6 1.9s2.9-.3 4.2-1.3l7.3-5.6 5.8 7.5-7.4 5.7c-3.5 2.7-7.4 3.9-11.6 3.5s-7.4-2.3-9.8-5.4zm36.4 17.5-19.4 8.3-3.6-8.4 61.6-26.3 3.6 8.4-21.9 9.4 26.3.8 3.8 9-30.1-.7-30.7 29-4.2-9.9 21.2-19.5-6.6-.1zM162.3 330.3l6.9 10.4-15.9 10.6c-8 5.3-15.1 4.6-20-2.7-4.8-7.3-2.8-14.1 5.3-19.5l26.1-17.3c8-5.3 15.1-4.6 20 2.7 4.8 7.3 2.8 14.1-5.3 19.5l-4.9 3.2-4.7-7 5.4-3.6c3.6-2.4 4-4.8 2.4-7.1-1.6-2.4-3.9-2.9-7.5-.6l-27.1 18c-3.6 2.4-3.9 4.7-2.3 7.1 1.6 2.4 3.8 3 7.4.6l9.3-6.1-2.2-3.4 7.1-4.8zm41.1 8.1-31.7 34c-2.9 3.1-2.7 5.5-.6 7.4s4.4 2 7.4-1.1l31.7-34 6.2 5.8-31.5 33.5c-6.6 7.1-13.7 8-20.1 2-6.4-6-5.9-13.1.6-20.1l31.3-33.6 6.7 6.1zm16.4 84.1-7.9-4.3 3.9-10.3-9.6-5.3-6.6 8.8-7.2-3.9 37-48.5 11.4 6.3-21 57.2zm-8.6-26.5 7.5 4.1 11-28.7-.1-.1-18.4 24.7zm47.8 39c-.1-1.6-.2-2.6 1-7.4l2.3-9.2c1.4-5.4.1-7.9-3.8-8.9l-3-.7-5.9 23.8-8.6-2.2 14.6-58.5 13 3.3c9 2.2 11.7 7.6 9.5 16.7l-1.1 4.6c-1.5 6-4.3 9.4-8.6 10.4v.2c3.8 3 4.2 7.7 2.7 13.8l-2.3 9c-.7 2.8-1.2 5-.8 7.3l-9-2.2zm3.1-52.5-4.5 18 3.4.8c3.2.8 5.6-.2 6.7-4.9l1.4-5.8c1-4.2.2-6.4-2.9-7.1l-4.1-1zm57.9 56.7-9 .2-1.7-10.9-10.9.2-1.4 11-8.2.1 8-60.5 13-.2 10.2 60.1zm-20.6-18.8 8.6-.1-4.7-30.4h-.2l-3.7 30.5zm39-29.1h-.2l12.3 41.9-7.7 2.3-17-57.8 10.7-3.2 18.8 32.1h.2L345.3 372l7.6-2.2 17 57.8-8.8 2.6-22.7-38.9zm20.7-24.4 23.7-14.1 4.4 7.4-8 4.8 26.4 44.4-7.7 4.6-26.4-44.4-8 4.8-4.4-7.5zm53-6.3 8.9-8.4 5.9 6.2-8.9 8.4 12.2 12.8 11.1-10.6 5.9 6.2-17.4 16.8-41.6-43.7 17.6-16.8 5.9 6.2-11.1 10.6 11.5 12.3zm25.1-28.9 6.8-10.2 7.2 4.8-6.8 10.2 14.7 9.8 8.6-12.8 7.2 4.8-13.5 20.2-50.2-33.5 13.5-20.2 7.2 4.8-8.6 12.8 13.9 9.3zm-297.5-81.3 3.2 6.6 7.2 1-5.2 5.1 1.2 7.2-6.4-3.4-6.5 3.4 1.2-7.2-5.2-5.1 7.2-1zm327.1 0 3.2 6.6 7.2 1-5.2 5.1 1.2 7.2-6.4-3.4-6.5 3.4 1.2-7.2-5.2-5.1 7.2-1z"/><circle cx="301" cy="250" r="86" style="fill:#94deff!important"/><path class="stT4_0031" d="M269.6 225.9h6c2.9 0 5-.7 6.3-2.1 1.4-1.4 2.1-3.3 2.1-5.7 0-2.3-.7-4.1-2-5.3-1.4-1.3-3.2-1.9-5.6-1.9-2.2 0-4 .6-5.4 1.8-1.5 1.2-2.2 2.7-2.2 4.6h-11.2c0-3 .8-5.6 2.4-8 1.6-2.3 3.8-4.2 6.7-5.5 2.9-1.3 6-2 9.5-2 6 0 10.7 1.4 14.1 4.3 3.4 2.9 5.1 6.8 5.1 11.8 0 2.6-.8 5-2.4 7.2-1.6 2.2-3.7 3.9-6.2 5 3.2 1.1 5.6 2.9 7.1 5.1 1.6 2.3 2.4 5 2.4 8.1 0 5-1.8 9.1-5.5 12.1s-8.5 4.6-14.6 4.6c-5.7 0-10.3-1.5-13.9-4.5-3.6-3-5.4-6.9-5.4-11.8H268c0 2.1.8 3.9 2.4 5.2 1.6 1.3 3.6 2 5.9 2 2.7 0 4.8-.7 6.3-2.1 1.5-1.4 2.3-3.3 2.3-5.6 0-5.7-3.1-8.5-9.3-8.5h-6v-8.8zm72.4 9.8c0 7.8-1.6 13.8-4.9 18-3.2 4.1-8 6.2-14.2 6.2-6.2 0-10.9-2-14.2-6.1-3.3-4.1-4.9-9.9-5-17.5v-10.4c0-7.9 1.6-13.9 4.9-18 3.3-4.1 8-6.1 14.2-6.1s10.9 2 14.2 6.1c3.3 4.1 4.9 9.9 5 17.5v10.3zm-11.3-11.4c0-4.7-.6-8.1-1.9-10.3-1.3-2.1-3.3-3.2-6-3.2-2.6 0-4.6 1-5.9 3.1-1.3 2-1.9 5.2-2 9.6v13.8c0 4.6.6 8.1 1.9 10.3 1.3 2.2 3.3 3.4 6 3.4s4.7-1.1 6-3.2c1.2-2.2 1.9-5.5 1.9-9.9v-13.6zM262 286.4c0-3.1.7-5.5 2.1-7.3 1.4-1.8 3.3-2.7 5.6-2.7 1.9 0 3.5.7 4.7 2.1v-10h5.3v27.9H275l-.3-2.1c-1.3 1.6-3 2.5-5 2.5-2.3 0-4.2-.9-5.6-2.7-1.4-1.9-2.1-4.5-2.1-7.7zm5.2.4c0 1.8.3 3.3 1 4.2.6 1 1.6 1.5 2.8 1.5 1.6 0 2.8-.7 3.4-2.1v-7.8c-.7-1.4-1.8-2.1-3.4-2.1-2.5.1-3.8 2.2-3.8 6.3zm28 9.5c-.2-.5-.4-1.1-.5-1.8-1.3 1.4-2.9 2.1-5 2.1-1.9 0-3.5-.6-4.8-1.7-1.3-1.1-1.9-2.5-1.9-4.2 0-2.1.8-3.7 2.3-4.8s3.8-1.7 6.7-1.7h2.4v-1.1c0-.9-.2-1.6-.7-2.2s-1.2-.8-2.2-.8c-.9 0-1.6.2-2.1.6s-.8 1-.8 1.7h-5.2c0-1.1.4-2.2 1.1-3.2.7-1 1.7-1.7 3-2.3s2.7-.8 4.3-.8c2.4 0 4.3.6 5.8 1.8s2.1 2.9 2.1 5.1v8.5c0 1.9.3 3.3.8 4.2v.3h-5.3zm-4.4-3.6c.8 0 1.5-.2 2.1-.5.7-.3 1.1-.8 1.5-1.4v-3.4h-2c-2.6 0-4 .9-4.2 2.7v.3c0 .7.2 1.2.7 1.6.5.5 1.1.7 1.9.7zm20-3.8 3.6-12.2h5.6l-7.9 22.7-.4 1c-1.2 2.6-3.1 3.9-5.8 3.9-.8 0-1.5-.1-2.3-.3v-4h.8c1 0 1.7-.2 2.2-.5s.9-.8 1.2-1.5l.6-1.6-6.9-19.7h5.6l3.7 12.2zm21.9 2c0-.6-.3-1.1-1-1.5s-1.7-.7-3.1-1c-4.7-1-7-3-7-6 0-1.7.7-3.2 2.2-4.4 1.4-1.2 3.3-1.8 5.7-1.8 2.5 0 4.5.6 6 1.8s2.2 2.7 2.2 4.6h-5.2c0-.8-.2-1.4-.7-1.9-.5-.5-1.2-.7-2.3-.7-.9 0-1.6.2-2.1.6s-.7.9-.7 1.5.3 1.1.8 1.4c.6.4 1.5.7 2.8.9 1.3.3 2.4.6 3.3.9 2.8 1 4.2 2.8 4.2 5.3 0 1.8-.8 3.2-2.3 4.3-1.5 1.1-3.5 1.7-6 1.7-1.6 0-3.1-.3-4.4-.9-1.3-.6-2.3-1.4-3-2.4-.7-1-1.1-2.1-1.1-3.3h5c0 .9.4 1.6 1 2.1s1.5.7 2.6.7c1 0 1.8-.2 2.3-.6.6-.2.8-.7.8-1.3z"/><path class="stT4_0030" d="M301.1 359.8c-.8 0-1.5-.7-1.5-1.5 0-.4.1-.8.4-1.1.3-.3.7-.4 1.1-.4h.1c5 0 10.1-.4 15-1.1.8-.1 1.6.5 1.7 1.3.1.4 0 .8-.3 1.1-.2.3-.6.5-1 .6-5.1.8-10.4 1.1-15.5 1.1zm-15.3-1h-.2c-5.1-.7-10.2-1.8-15.2-3.3-.6-.2-1.1-.8-1.1-1.5 0-.1 0-.3.1-.4.2-.8 1.1-1.2 1.9-1 4.8 1.4 9.7 2.5 14.7 3.2.4 0 .8.3 1 .6.2.3.4.7.3 1.1-.1.7-.8 1.3-1.5 1.3zm45.5-3.3c-.7 0-1.3-.4-1.4-1.1 0-.1-.1-.3-.1-.4 0-.7.4-1.3 1.1-1.5 4.8-1.4 9.6-3.2 14.1-5.3.7-.3 1.7 0 2 .7.3.8 0 1.6-.7 2-4.7 2.1-9.6 4-14.5 5.4-.2.2-.4.2-.5.2zm-74.8-5.3c-.2 0-.4 0-.6-.1-4.7-2.1-9.3-4.7-13.6-7.5-.4-.3-.7-.8-.7-1.3 0-.3.1-.6.2-.8.4-.7 1.4-.9 2.1-.5 4.2 2.7 8.7 5.1 13.3 7.2.8.4 1.1 1.2.8 2-.4.6-.9 1-1.5 1zm102.6-7.4c-.5 0-1-.3-1.3-.7-.2-.2-.2-.5-.2-.8 0-.5.3-1 .7-1.3 4.2-2.7 8.3-5.8 12.1-9.1.6-.5 1.6-.5 2.1.2.3.3.4.7.4 1.1 0 .4-.2.8-.5 1-3.9 3.4-8.1 6.5-12.4 9.3-.4.2-.7.3-.9.3zm-128.3-9.1c-.4 0-.7-.1-1-.4-3.9-3.4-7.6-7.1-11-11-.2-.3-.4-.6-.4-1s.2-.8.5-1.1c.6-.5 1.6-.5 2.1.1 3.3 3.8 6.9 7.4 10.7 10.7.3.3.5.6.5 1s-.1.8-.4 1.1c-.2.4-.6.6-1 .6zm151.3-10.9c-.4 0-.7-.1-1-.4-.3-.3-.5-.7-.5-1.1 0-.4.1-.7.4-1 3.3-3.8 6.3-7.9 9.1-12.1.4-.7 1.4-.9 2.1-.5.7.5.9 1.4.5 2.1-2.8 4.3-5.9 8.5-9.3 12.4-.4.4-.8.6-1.3.6zm-171.4-12.2c-.5 0-1-.3-1.3-.7-2.8-4.3-5.3-8.9-7.5-13.6-.1-.2-.1-.4-.1-.6 0-.6.3-1.1.9-1.4.7-.3 1.7 0 2 .7 2.1 4.5 4.5 9 7.3 13.2.4.7.2 1.6-.5 2.1-.2.2-.5.3-.8.3zm188-13.5c-.2 0-.4 0-.6-.1-.5-.2-.9-.8-.9-1.4 0-.2 0-.4.1-.6 2.1-4.6 3.9-9.3 5.3-14.1.2-.8 1.1-1.2 1.9-1 .8.2 1.3 1.1 1 1.9-1.5 5-3.3 9.9-5.4 14.6-.3.3-.9.7-1.4.7zM198 282.8c-.7 0-1.3-.5-1.4-1.1-1.5-4.9-2.6-10-3.3-15.2v-.2c0-.7.6-1.4 1.3-1.5.8-.1 1.6.5 1.7 1.3.7 5 1.8 9.9 3.2 14.7.1.4.1.8-.1 1.1-.2.4-.5.6-.9.7-.2.2-.3.2-.5.2zm209.3-15h-.2c-.7-.1-1.3-.7-1.3-1.5v-.2c.7-5 1.1-10 1.1-15.1v-.2c0-.8.7-1.5 1.5-1.5s1.5.7 1.5 1.5v.2c0 5.2-.4 10.4-1.1 15.5-.2.7-.8 1.3-1.5 1.3zm-213.6-15.2c-.8 0-1.5-.7-1.5-1.5v-.1c0-5.1.4-10.3 1.1-15.4.1-.8.9-1.4 1.7-1.3.7.1 1.3.7 1.3 1.5v.2c-.7 4.9-1.1 9.9-1.1 14.9v.1c0 .4-.1.8-.4 1.1-.4.4-.7.5-1.1.5zM407.2 237c-.7 0-1.4-.5-1.5-1.3-.7-5-1.8-10-3.2-14.8-.1-.4-.1-.8.1-1.1.2-.4.5-.6.9-.7.8-.2 1.6.2 1.9 1 1.5 5 2.6 10 3.3 15.2v.2c0 .7-.6 1.4-1.3 1.5h-.2zM198 222.4c-.1 0-.3 0-.4-.1-.8-.2-1.3-1.1-1-1.9 1.4-5 3.3-9.9 5.4-14.6.3-.7 1.3-1.1 2-.8.5.3.9.8.9 1.4 0 .2-.1.4-.1.6-2.1 4.6-3.9 9.3-5.3 14.2-.3.7-.9 1.2-1.5 1.2zm200.6-14.7c-.6 0-1.1-.3-1.4-.9-2.1-4.5-4.5-9-7.3-13.2-.2-.3-.3-.7-.2-1.1.1-.4.3-.7.7-.9.7-.4 1.6-.2 2.1.4 2.8 4.3 5.3 8.9 7.5 13.6.1.2.1.4.1.6 0 .6-.3 1.1-.9 1.4-.2.1-.4.1-.6.1zm-188-13.1c-.3 0-.6-.1-.8-.2-.3-.2-.6-.5-.7-1-.1-.4 0-.8.2-1.1 2.8-4.3 5.9-8.5 9.3-12.4.5-.6 1.5-.7 2.1-.2.3.3.5.7.5 1.1 0 .4-.1.7-.4 1-3.3 3.8-6.3 7.9-9 12.1-.2.4-.7.7-1.2.7zM382 182.1c-.4 0-.9-.2-1.1-.5-3.3-3.8-6.9-7.4-10.7-10.7-.6-.5-.7-1.5-.2-2.1.5-.6 1.5-.7 2.1-.2 3.9 3.4 7.6 7.1 11 11 .2.3.4.6.4 1s-.2.8-.5 1.1c-.3.2-.6.4-1 .4zm-151.4-10.6c-.4 0-.9-.2-1.1-.5-.3-.3-.4-.7-.4-1.1 0-.4.2-.8.5-1 3.9-3.4 8.1-6.5 12.4-9.3.7-.4 1.6-.2 2.1.5.2.2.2.5.2.8 0 .5-.3 1-.7 1.3-4.2 2.7-8.3 5.8-12.1 9.1-.2 0-.5.2-.9.2zm128.3-9.4c-.3 0-.6-.1-.8-.2-4.2-2.7-8.7-5.1-13.3-7.2-.8-.3-1.1-1.2-.7-2 .3-.7 1.3-1.1 2-.7 4.7 2.1 9.3 4.6 13.6 7.4.4.3.7.8.7 1.3 0 .3-.1.6-.2.8-.3.3-.8.6-1.3.6zm-102.6-7.2c-.6 0-1.1-.3-1.4-.9-.3-.8 0-1.6.7-2 4.7-2.2 9.6-4 14.5-5.5.8-.2 1.6.3 1.9 1 0 .1.1.3.1.4 0 .7-.4 1.3-1.1 1.4h-.1c-4.8 1.4-9.5 3.2-14.1 5.3-.1.3-.3.3-.5.3zm74.8-5.5c-.1 0-.3 0-.4-.1-4.8-1.4-9.8-2.5-14.8-3.2-.4 0-.8-.3-1-.6-.2-.3-.3-.7-.3-1.1.1-.8.9-1.4 1.7-1.3 5.1.7 10.2 1.8 15.2 3.3.6.2 1.1.8 1.1 1.4 0 .1 0 .3-.1.4-.2.8-.8 1.2-1.4 1.2zm-45.5-3.1c-.7 0-1.4-.6-1.5-1.3-.1-.8.5-1.6 1.3-1.7 5.1-.7 10.2-1.1 15.4-1.1h.1c.8 0 1.5.7 1.5 1.5 0 .4-.2.8-.4 1.1-.3.3-.6.4-1 .4h-.1c-5 0-10 .4-15 1.1h-.3z"/></svg>